<svg height="35.64000000000001" width="217.67118976319585" style="/* width: 217.671px; *//* height: 35.64px; *//* position: absolute; *//* top: 50%; *//* left: 50%; */transform: translate(1%, 12%) scale(1);/* z-index: 0; *//* cursor: pointer; *//* overflow: visible; */"><defs id="SvgjsDefs1001"></defs><g id="SvgjsG1007" featurekey="symbolFeature-0" transform="matrix(0.44212880664087706,0,0,0.44212880664087706,-4.284228372472356,-4.284228372472356)" fill="#5171ff"><title xmlns="http://www.w3.org/2000/svg">104all</title><path xmlns="http://www.w3.org/2000/svg" d="M59.85,76.76A12,12,0,1,0,62.25,58L42,37.75A12,12,0,1,0,37.75,42L58,62.25A12,12,0,0,0,59.85,76.76ZM72.52,64.09a6,6,0,1,1-4.21-1.74A6,6,0,0,1,72.52,64.09Zm-45-28.19a6,6,0,1,1,8.43,0A6,6,0,0,1,27.48,35.91Z"></path><path xmlns="http://www.w3.org/2000/svg" d="M74.52,21.24a12,12,0,1,0,4.24,4.24L90.31,13.94,86.06,9.69ZM72.68,35.75a6,6,0,1,1,0-8.43A6,6,0,0,1,72.68,35.75Z"></path><path xmlns="http://www.w3.org/2000/svg" d="M25.48,78.76a12,12,0,1,0-4.24-4.24L9.69,86.06l4.24,4.24Zm1.84-14.51a6,6,0,1,1,0,8.43A5.94,5.94,0,0,1,27.32,64.25Z"></path></g><g id="SvgjsG1008" featurekey="nameLeftFeature-0" transform="matrix(1.3267812566900452,0,0,1.3267812566900452,53.081081804674646,1.259951949898551)" fill="#ffffff"><path d="M8.4 14.02 l-4.02 5.98 l-2.18 0 l0 -14.92 l2.18 0 l0 11.14 l7.58 -11.14 l2.62 0 l-4.9 7.02 l2.68 4.02 q0.64 0.96 1.26 1.36 q0.5 0.32 1.06 0.32 l0.62 -0.02 l0 2.22 l-0.4 0 q-1 0.02 -1.46 -0.08 q-0.74 -0.12 -1.36 -0.6 q-0.7 -0.56 -1.42 -1.68 z M20.88 14.02 l0 3.8 l9.2 0 l0 2.18 l-11.38 0 l0 -14.92 l10.5 0 l0 2.2 l-8.32 0 l0 4.52 q0.62 -0.36 1.38 -0.48 q0.56 -0.1 1.44 -0.1 l3.26 0 l0 2.22 l-3.26 0 q-0.82 0 -1.44 0.1 q-0.76 0.14 -1.38 0.48 z M38.52 11.64 q1.34 -1.4 2.42 -3.12 t1.72 -3.44 l2.5 0 q-1.02 2.38 -2.48 4.56 q-1.32 1.98 -3.08 3.9 l0 6.46 l-2.16 0 l0 -6.46 q-1.76 -1.92 -3.08 -3.9 q-1.46 -2.18 -2.48 -4.56 l2.5 0 q0.64 1.72 1.72 3.44 t2.42 3.12 z"></path></g><g id="SvgjsG1009" featurekey="nameRightFeature-0" transform="matrix(1.3983050056381952,0,0,1.3983050056381952,116.71356028827634,-0.27796440653275134)" fill="#ffffff"><path d="M10.54 7.18 q-1.14 -0.46 -2.38 -0.46 q-1.74 0 -3.21 0.84 t-2.33 2.28 t-0.86 3.14 t0.86 3.14 t2.33 2.29 t3.21 0.85 q1.24 0 2.37 -0.45 t2.03 -1.27 l0.52 0.58 q-0.98 0.92 -2.27 1.44 t-2.67 0.52 q-1.96 0 -3.62 -0.95 t-2.63 -2.58 t-0.97 -3.55 t0.97 -3.55 t2.63 -2.58 t3.62 -0.95 q1.38 0 2.65 0.5 t2.27 1.4 l-0.5 0.64 q-0.88 -0.82 -2.02 -1.28 z M25.85 6.869999999999999 q1.67 0.95 2.64 2.57 t0.97 3.54 t-0.97 3.55 t-2.64 2.59 t-3.63 0.96 t-3.63 -0.96 t-2.64 -2.59 t-0.97 -3.55 t0.97 -3.54 t2.64 -2.57 t3.63 -0.95 t3.63 0.95 z M19.03 7.58 q-1.47 0.84 -2.33 2.27 t-0.86 3.13 t0.86 3.14 t2.33 2.29 t3.19 0.85 t3.19 -0.85 t2.33 -2.29 t0.86 -3.14 t-0.86 -3.13 t-2.33 -2.27 t-3.19 -0.84 t-3.19 0.84 z M41.95 6.949999999999999 q1.65 0.93 2.61 2.54 t0.96 3.53 q0 1.9 -0.96 3.51 t-2.62 2.54 t-3.62 0.93 l-5.54 0 l0 -13.98 l5.56 0 q1.96 0 3.61 0.93 z M41.510000000000005 18.35 q1.45 -0.83 2.3 -2.24 t0.85 -3.09 q0 -1.7 -0.85 -3.11 t-2.3 -2.24 t-3.19 -0.83 l-4.7 0 l0 12.34 l4.72 0 q1.72 0 3.17 -0.83 z M48.839999999999996 6.02 l9.02 0 l0 0.82 l-8.18 0 l0 5.58 l7.28 0 l0 0.84 l-7.28 0 l0 5.92 l8.44 0 l0 0.82 l-9.28 0 l0 -13.98 z M71.19999999999999 20 l-3.3 -4.74 q-0.5 0.08 -1.18 0.08 l-4.1 0 l0 4.66 l-0.84 0 l0 -13.98 l4.94 0 q2.6 0 4.01 1.2 t1.41 3.4 q0 1.78 -0.88 2.93 t-2.56 1.57 l3.5 4.88 l-1 0 z M66.74 14.52 q2.2 0 3.39 -1 t1.19 -2.88 q0 -1.84 -1.19 -2.82 t-3.39 -0.98 l-4.12 0 l0 7.68 l4.12 0 z"></path></g></svg>